<svg width="32" height="32" viewBox="0 0 32 32" fill="none" xmlns="http://www.w3.org/2000/svg">
<rect width="32" height="32" rx="15" fill="#181C1F"/>
<path d="M13.3333 10C12.9797 10 12.6406 10.1405 12.3905 10.3905C12.1405 10.6406 12 10.9797 12 11.3333V14C12 14.3536 11.8595 14.6928 11.6095 14.9428C11.3594 15.1929 11.0203 15.3333 10.6667 15.3333H10V16.6667H10.6667C11.0203 16.6667 11.3594 16.8071 11.6095 17.0572C11.8595 17.3072 12 17.6464 12 18V20.6667C12 21.0203 12.1405 21.3594 12.3905 21.6095C12.6406 21.8595 12.9797 22 13.3333 22H14.6667V20.6667H13.3333V17.3333C13.3333 16.9797 13.1929 16.6406 12.9428 16.3905C12.6928 16.1405 12.3536 16 12 16C12.3536 16 12.6928 15.8595 12.9428 15.6095C13.1929 15.3594 13.3333 15.0203 13.3333 14.6667V11.3333H14.6667V10M18.6667 10C19.0203 10 19.3594 10.1405 19.6095 10.3905C19.8595 10.6406 20 10.9797 20 11.3333V14C20 14.3536 20.1405 14.6928 20.3905 14.9428C20.6406 15.1929 20.9797 15.3333 21.3333 15.3333H22V16.6667H21.3333C20.9797 16.6667 20.6406 16.8071 20.3905 17.0572C20.1405 17.3072 20 17.6464 20 18V20.6667C20 21.0203 19.8595 21.3594 19.6095 21.6095C19.3594 21.8595 19.0203 22 18.6667 22H17.3333V20.6667H18.6667V17.3333C18.6667 16.9797 18.8071 16.6406 19.0572 16.3905C19.3072 16.1405 19.6464 16 20 16C19.6464 16 19.3072 15.8595 19.0572 15.6095C18.8071 15.3594 18.6667 15.0203 18.6667 14.6667V11.3333H17.3333V10H18.6667Z" fill="#00E101"/>
</svg>
